<svg width="176" height="176" viewBox="0 0 176 176" fill="none" xmlns="http://www.w3.org/2000/svg">
<path fill-rule="evenodd" clip-rule="evenodd" d="M87.9999 119.519C96.6527 119.519 103.68 126.547 103.68 135.199C103.68 143.852 96.6527 150.879 87.9999 150.879C79.3471 150.879 72.3198 143.852 72.3198 135.199C72.3198 126.547 79.3471 119.519 87.9999 119.519ZM64.3673 107.597C69.8293 100.622 78.3854 96.1219 87.9999 96.1219C97.6144 96.1219 106.171 100.622 111.632 107.597C115.662 112.743 123.165 113.694 128.379 109.717C133.59 105.742 134.554 98.3381 130.524 93.1924C120.701 80.6431 105.298 72.56 87.9999 72.56C70.7021 72.56 55.299 80.6431 45.4754 93.1924C41.4456 98.3381 42.41 105.742 47.621 109.717C52.8346 113.694 60.3376 112.743 64.3673 107.597ZM39.1407 74.0835C49.9443 58.9209 67.8065 49.0006 87.9999 49.0006C108.193 49.0006 126.056 58.9209 136.859 74.0835C140.651 79.4017 148.102 80.6849 153.49 76.9426C158.879 73.2029 160.178 65.8489 156.389 60.5307C141.265 39.3103 116.261 25.4387 87.9999 25.4387C59.7391 25.4387 34.7346 39.3103 19.6111 60.5307C15.8217 65.8489 17.1206 73.2029 22.5093 76.9426C27.898 80.6849 35.3487 79.4017 39.1407 74.0835Z" fill="#41B3E6"/>
<path fill-rule="evenodd" clip-rule="evenodd" d="M99.1363 128.144C100.232 130.034 100.857 132.229 100.857 134.569C100.857 141.666 95.0967 147.426 87.9997 147.426C80.9028 147.426 75.143 141.666 75.143 134.569C75.143 127.472 80.9028 121.713 87.9997 121.713C89.5014 121.713 90.9439 121.97 92.2836 122.445C93.6233 122.919 95.0941 122.217 95.5672 120.879C96.0404 119.54 95.3384 118.069 94.0013 117.596C92.1242 116.932 90.1031 116.57 87.9997 116.57C78.0666 116.57 70.0002 124.636 70.0002 134.569C70.0002 144.503 78.0666 152.569 87.9997 152.569C97.9329 152.569 105.999 144.503 105.999 134.569C105.999 131.291 105.12 128.216 103.587 125.567C102.875 124.338 101.301 123.919 100.072 124.631C98.8457 125.341 98.424 126.914 99.1363 128.144Z" fill="#262626"/>
<path fill-rule="evenodd" clip-rule="evenodd" d="M80.9525 99.6126C83.1999 99.0109 85.563 98.6894 88.0006 98.6894C96.6379 98.6894 104.324 102.729 109.23 108.995C114.056 115.159 123.043 116.303 129.289 111.541C135.563 106.756 136.715 97.8435 131.868 91.6516C121.732 78.7048 105.846 70.3633 88.0006 70.3633C70.1554 70.3633 54.2695 78.7048 44.1332 91.6516C39.2862 97.8435 40.4382 106.756 46.7123 111.541C52.9581 116.303 61.945 115.159 66.7715 108.995C68.16 107.221 69.7723 105.624 71.5671 104.249C72.6933 103.385 72.9042 101.77 72.0402 100.644C71.1762 99.5174 69.5614 99.304 68.4352 100.168C66.2984 101.808 64.3776 103.711 62.7216 105.825C59.6205 109.785 53.8453 110.51 49.8314 107.45C45.8457 104.413 45.1052 98.7537 48.1831 94.8221C57.3834 83.071 71.8036 75.5061 88.0006 75.5061C104.198 75.5061 118.618 83.071 127.818 94.8221C130.896 98.7537 130.156 104.413 126.17 107.45C122.156 110.51 116.381 109.785 113.28 105.825C107.438 98.3629 98.2861 93.5467 88.0006 93.5467C85.1002 93.5467 82.2897 93.9298 79.6206 94.6473C78.25 95.015 77.4349 96.4266 77.8026 97.7972C78.1703 99.1677 79.582 99.9828 80.9525 99.6126Z" fill="#262626"/>
<path fill-rule="evenodd" clip-rule="evenodd" d="M48.234 33.7712C36.4211 39.9784 26.272 48.865 18.617 59.6082C14.0555 66.0083 15.6086 74.8589 22.0961 79.3613C28.5502 83.8432 37.478 82.3004 42.019 75.9286C52.1861 61.6601 68.9977 52.3261 88 52.3261C107.002 52.3261 123.814 61.6601 133.981 75.9286C138.522 82.3004 147.45 83.8432 153.904 79.3613C160.391 74.8589 161.945 66.0083 157.383 59.6082C142.042 38.0782 116.673 24 88 24C77.7557 24 67.9331 25.7974 58.8408 29.0887C57.5063 29.5721 56.8146 31.0481 57.298 32.3826C57.7814 33.7172 59.2548 34.4089 60.5893 33.9254C69.1391 30.8321 78.3703 29.1427 88 29.1427C114.94 29.1427 138.779 42.3621 153.197 62.5909C156.092 66.6562 155.092 72.2772 150.973 75.1366C146.825 78.0165 141.086 77.0368 138.17 72.9432C127.074 57.3736 108.735 47.1834 88 47.1834C67.2646 47.1834 48.9256 57.3736 37.8302 72.9432C34.9143 77.0368 29.175 78.0165 25.0274 75.1366C20.9081 72.2772 19.9079 66.6562 22.8032 62.5909C29.9953 52.5009 39.5299 44.1543 50.6253 38.3225C51.8827 37.6616 52.3661 36.106 51.7053 34.8511C51.0444 33.5937 49.4888 33.1103 48.234 33.7712Z" fill="#262626"/>
<path d="M120 140C134.359 140 146 128.359 146 114C146 99.6406 134.359 88 120 88C105.641 88 94 99.6406 94 114C94 128.359 105.641 140 120 140Z" fill="#EF4D4D"/>
<path d="M144.74 122C142.728 128.227 138.441 133.466 132.736 136.671C127.03 139.877 120.326 140.813 113.961 139.293C107.596 137.773 102.038 133.909 98.3969 128.471C94.7555 123.034 93.2985 116.423 94.3167 109.959C95.3348 103.495 98.7532 97.6519 103.89 93.597C109.026 89.5421 115.503 87.5732 122.027 88.0833C128.551 88.5934 134.643 91.5449 139.087 96.3489C143.53 101.153 145.999 107.456 146 114" stroke="#262626" stroke-width="5" stroke-linecap="round" stroke-linejoin="round"/>
<path d="M111.631 105.631L127.631 121.631" stroke="#262626" stroke-width="5" stroke-linecap="round" stroke-linejoin="round"/>
<path d="M128 106L112 122" stroke="#262626" stroke-width="5" stroke-linecap="round" stroke-linejoin="round"/>
</svg>
