<svg width="176" height="176" viewBox="0 0 176 176" fill="none" xmlns="http://www.w3.org/2000/svg">
<g id="Warning">
<path id="Vector" d="M159.078 144.32C158.458 146.361 157.197 148.147 155.482 149.415C153.767 150.683 151.689 151.365 149.556 151.36H26.4001C24.6494 151.36 22.9296 150.899 21.4135 150.024C19.8975 149.148 18.6386 147.889 17.7636 146.373C16.8886 144.857 16.4283 143.137 16.429 141.386C16.4296 139.635 16.8912 137.916 17.7673 136.4L79.3673 29.7792C80.2408 28.2621 81.4987 27.002 83.0143 26.1258C84.5298 25.2497 86.2495 24.7883 88.0001 24.7883C89.7507 24.7883 91.4704 25.2497 92.9859 26.1258C94.5015 27.002 95.7593 28.2621 96.6329 29.7792L158.233 136.4C158.92 137.588 159.35 138.906 159.495 140.27C159.641 141.635 159.498 143.014 159.078 144.32Z" fill="#FDFDFD"/>
<path id="Vector_2" d="M159.078 144.32H31.7415C24.0679 144.32 27.1919 136.013 31.0287 129.36L91.1327 25.256C93.4598 26.0169 95.4205 27.6168 96.6327 29.744L158.233 136.365C158.924 137.557 159.357 138.882 159.503 140.252C159.648 141.623 159.503 143.009 159.078 144.32Z" fill="#FFC861"/>
<path id="Vector_3" d="M89.4873 122.822C87.7742 122.781 86.0611 122.781 84.3481 122.822C83.2711 122.853 82.2239 122.466 81.4276 121.74C80.6313 121.014 80.1481 120.007 80.0801 118.932L76.8241 67.1968C76.7933 66.6439 76.8729 66.0904 77.0583 65.5686C77.2437 65.0468 77.5311 64.5671 77.9038 64.1575C78.2765 63.7479 78.727 63.4167 79.2291 63.1831C79.7312 62.9494 80.2747 62.8181 80.8281 62.7968C84.8761 62.6501 88.927 62.6501 92.9809 62.7968C93.5342 62.8181 94.0778 62.9494 94.5799 63.1831C95.0819 63.4167 95.5325 63.7479 95.9052 64.1575C96.2779 64.5671 96.5653 65.0468 96.7507 65.5686C96.936 66.0904 97.0157 66.6439 96.9849 67.1968L93.7289 118.932C93.661 120.003 93.1815 121.005 92.3909 121.73C91.6002 122.455 90.5597 122.846 89.4873 122.822Z" fill="#262626"/>
<path id="Vector_4" d="M92.9455 131.727C92.7944 133.22 92.0946 134.603 90.9817 135.609C89.8688 136.615 88.4221 137.172 86.9219 137.172C85.4218 137.172 83.9751 136.615 82.8622 135.609C81.7493 134.603 81.0495 133.22 80.8983 131.727C80.6607 128.612 83.3623 125.866 86.9175 125.866C90.4727 125.866 93.1743 128.612 92.9455 131.727Z" fill="#262626"/>
<path id="Vector_5" d="M17.8025 136.33L79.4025 29.7088C80.2772 28.1919 81.536 26.9321 83.0522 26.0562C84.5685 25.1803 86.2886 24.7191 88.0397 24.7191C89.7907 24.7191 91.5109 25.1803 93.0271 26.0562C94.5433 26.9321 95.8021 28.1919 96.6769 29.7088L158.277 136.33C159.153 137.845 159.615 139.565 159.615 141.316C159.616 143.066 159.155 144.786 158.28 146.303C157.405 147.819 156.147 149.078 154.631 149.953C153.115 150.829 151.395 151.29 149.644 151.29H26.4001C24.6524 151.284 22.937 150.818 21.4258 149.94C19.9147 149.062 18.6608 147.803 17.79 146.287C16.9192 144.772 16.4619 143.054 16.4641 141.307C16.4663 139.559 16.9278 137.843 17.8025 136.33Z" stroke="#262626" stroke-width="6" stroke-linecap="round" stroke-linejoin="round"/>
</g>
</svg>
